<?xml version="1.0" standalone="no"?>
<!DOCTYPE svg PUBLIC "-//W3C//DTD SVG 20010904//EN"
 "http://www.w3.org/TR/2001/REC-SVG-20010904/DTD/svg10.dtd">
<svg version="1.0" xmlns="http://www.w3.org/2000/svg"
 width="800.000000pt" height="800.000000pt" viewBox="0 0 800.000000 800.000000"
 preserveAspectRatio="xMidYMid meet">
<metadata>
Created by potrace 1.14, written by Peter Selinger 2001-2017
</metadata>
<g transform="translate(0.000000,800.000000) scale(0.100000,-0.100000)"
fill="#000000" stroke="none">
<path d="M5624 7532 c-20 -14 -126 -145 -159 -197 -53 -82 -145 -272 -145
-298 0 -7 -4 -17 -9 -23 -18 -20 -102 -325 -116 -419 -3 -23 -8 -52 -11 -65
-2 -14 -7 -40 -10 -59 -2 -19 -6 -46 -9 -60 -2 -14 -7 -57 -10 -96 -6 -67 -8
-72 -51 -113 -25 -23 -89 -75 -142 -114 -53 -39 -114 -84 -134 -100 -20 -15
-42 -28 -47 -28 -6 0 -11 -4 -11 -10 0 -5 -6 -10 -14 -10 -8 0 -16 -3 -18 -8
-1 -4 -61 -45 -133 -92 -71 -46 -133 -88 -136 -93 -3 -5 -8 -8 -10 -6 -2 1
-24 -10 -49 -26 -25 -15 -63 -39 -85 -53 -22 -14 -42 -24 -44 -23 -2 2 -7 -2
-10 -7 -3 -5 -24 -19 -46 -31 -22 -12 -60 -34 -85 -49 -25 -16 -65 -39 -90
-53 -25 -13 -47 -26 -50 -29 -30 -30 -506 -261 -565 -274 -5 -1 -20 -5 -31 -9
-15 -5 -53 4 -115 27 -52 19 -112 40 -134 46 -22 7 -49 17 -60 21 -11 5 -29
11 -40 12 -11 2 -27 6 -35 10 -15 5 -84 23 -130 33 -22 5 -48 11 -130 27 -14
3 -56 10 -95 16 -38 5 -88 12 -110 16 -192 28 -611 25 -815 -6 -36 -5 -81 -12
-100 -14 -19 -2 -46 -7 -60 -10 -14 -2 -47 -9 -75 -15 -27 -6 -60 -12 -73 -15
-13 -2 -32 -7 -42 -10 -10 -3 -27 -8 -39 -10 -38 -7 -176 -48 -288 -84 l-113
-37 80 -99 c43 -55 88 -110 100 -122 11 -12 20 -24 20 -27 0 -4 29 -39 87
-106 18 -21 33 -41 33 -46 0 -5 9 -15 20 -22 11 -7 20 -18 20 -25 0 -7 9 -18
21 -25 20 -13 20 -14 2 -35 -17 -21 -17 -21 0 -7 20 15 28 8 97 -81 14 -18 32
-40 40 -48 9 -9 29 -34 45 -56 16 -22 34 -43 39 -47 6 -4 8 -8 4 -8 -3 0 9
-17 28 -37 19 -21 46 -50 59 -65 14 -15 25 -31 25 -37 0 -5 3 -11 8 -13 4 -1
36 -39 72 -83 36 -44 68 -81 73 -83 4 -2 7 -8 7 -14 0 -6 8 -18 18 -27 37 -34
72 -83 66 -93 -4 -6 -2 -8 3 -5 12 8 36 -17 26 -26 -3 -4 -2 -7 4 -7 6 0 46
-44 90 -97 43 -54 83 -103 88 -109 34 -38 70 -89 67 -97 -1 -5 2 -6 7 -2 6 3
15 -5 22 -17 7 -13 23 -33 36 -45 13 -13 21 -23 17 -23 -4 0 3 -8 14 -19 12
-10 22 -23 22 -29 0 -5 7 -13 16 -16 9 -3 14 -13 11 -21 -4 -9 -1 -12 8 -9 7
3 16 -3 20 -15 3 -12 11 -21 16 -21 6 0 7 -4 4 -10 -3 -6 -1 -10 5 -10 6 0 8
-6 4 -12 -4 -7 -4 -10 1 -6 4 4 14 3 21 -3 11 -9 3 -21 -36 -61 -28 -28 -50
-52 -50 -54 0 -3 -15 -20 -32 -38 -35 -36 -228 -241 -273 -291 -30 -32 -230
-246 -305 -326 -25 -26 -88 -93 -140 -149 -52 -56 -113 -121 -135 -145 -22
-23 -92 -98 -155 -165 -63 -68 -131 -140 -150 -160 -75 -80 -259 -277 -290
-310 -18 -19 -85 -91 -150 -160 -65 -69 -132 -141 -150 -160 -27 -29 -162
-174 -270 -289 -14 -15 -38 -41 -54 -59 l-29 -31 39 -48 c21 -26 44 -54 51
-61 9 -10 32 0 111 48 55 33 103 60 106 60 4 0 16 9 28 20 12 10 25 17 30 14
4 -3 8 -1 8 3 0 5 30 26 68 48 37 21 86 52 110 67 23 16 42 25 42 21 0 -4 4
-3 8 3 10 14 85 59 95 56 4 -1 7 2 7 6 0 10 50 37 63 34 4 -1 7 2 7 7 0 8 39
35 99 68 12 7 28 10 34 6 6 -3 7 -1 3 5 -4 7 -3 12 3 12 5 0 16 7 24 15 8 8
21 16 28 17 7 2 21 10 31 19 10 9 31 22 46 30 15 7 39 22 55 32 15 10 27 16
27 13 0 -3 9 2 20 11 18 15 66 45 145 89 17 9 32 20 35 23 8 10 63 42 83 48 9
3 17 9 17 14 0 5 7 9 15 9 8 0 15 5 15 10 0 6 3 9 8 8 4 -1 19 6 34 16 15 10
32 15 38 11 6 -4 9 -1 8 5 -2 7 13 21 32 31 19 11 44 25 55 32 11 6 23 10 28
9 4 -1 7 2 7 7 0 5 19 19 41 30 23 12 48 29 56 37 9 8 22 13 30 10 8 -3 12 -2
9 3 -5 7 10 17 34 24 3 0 16 11 30 24 14 14 33 22 43 19 11 -3 16 -2 13 1 -9
10 43 45 55 37 8 -4 9 -3 5 4 -4 7 -1 12 8 12 9 0 16 5 16 11 0 8 5 7 15 -1
13 -11 14 -10 9 4 -4 12 3 20 27 30 19 8 38 12 43 9 5 -4 6 -1 2 5 -4 7 4 17
21 24 15 7 30 15 33 19 3 3 21 14 40 25 19 10 41 25 49 32 7 7 20 11 28 8 8
-3 12 -2 9 2 -3 5 21 24 52 43 31 18 59 37 60 41 2 5 9 8 17 8 7 0 18 7 25 15
7 8 19 15 26 15 8 0 35 15 61 33 74 50 146 92 168 97 6 2 15 10 22 19 7 9 13
12 13 6 0 -6 3 -5 8 1 4 6 41 32 82 57 l75 46 37 -42 c20 -23 35 -43 34 -45
-2 -1 11 -18 28 -36 17 -18 45 -50 61 -71 17 -21 42 -52 57 -69 15 -17 27 -33
26 -36 0 -3 20 -27 45 -55 25 -27 44 -52 41 -56 -2 -4 3 -10 12 -13 8 -3 12
-11 8 -17 -4 -7 -3 -9 3 -6 5 3 18 -5 28 -19 10 -14 27 -35 37 -46 10 -11 15
-25 12 -30 -3 -4 0 -7 7 -6 7 2 18 -7 24 -19 5 -13 15 -23 22 -23 7 0 13 -5
13 -10 0 -11 8 -23 40 -58 9 -9 33 -39 55 -67 22 -27 43 -51 47 -53 5 -2 8
-10 8 -18 0 -9 5 -12 10 -9 6 3 10 -1 10 -9 0 -9 5 -16 10 -16 6 0 10 -10 10
-22 0 -17 3 -19 9 -9 7 11 10 10 15 -5 3 -11 16 -30 28 -44 13 -14 47 -54 76
-90 28 -36 61 -74 72 -85 11 -12 20 -25 20 -30 0 -6 9 -16 20 -23 11 -7 20
-17 20 -22 0 -6 16 -26 35 -45 19 -19 32 -35 29 -35 -3 0 4 -10 16 -22 23 -25
25 -34 8 -42 -7 -3 -4 -4 8 -1 14 4 27 -4 44 -27 13 -17 23 -37 23 -44 0 -7 3
-11 7 -9 4 2 20 -12 36 -32 16 -20 39 -47 51 -60 12 -12 20 -23 16 -23 -3 0
13 -19 36 -42 22 -24 41 -46 41 -49 0 -4 16 -24 35 -45 19 -22 33 -44 30 -51
-2 -7 2 -10 10 -7 7 3 16 -3 20 -15 3 -12 11 -21 16 -21 5 0 13 -8 16 -17 4
-10 18 -29 31 -42 24 -24 25 -24 38 -6 8 10 14 24 14 31 0 7 4 14 8 16 11 4
68 99 76 126 4 12 11 20 15 18 4 -3 8 5 8 16 1 12 6 24 11 27 4 3 14 21 21 39
8 17 18 32 24 32 6 0 8 3 4 6 -3 3 3 22 13 42 10 21 26 56 36 80 10 23 22 42
27 42 4 0 6 4 3 9 -9 14 5 42 17 34 5 -3 7 -1 4 5 -4 5 2 31 12 56 11 25 21
53 23 63 2 10 5 20 8 23 7 7 55 155 50 155 -2 0 2 10 9 23 7 13 14 31 16 40
38 158 49 201 54 198 3 -2 7 10 7 27 1 18 5 48 9 67 4 19 9 42 10 50 2 8 4 25
4 38 1 15 5 21 13 16 7 -5 8 -3 2 7 -13 22 -2 102 18 127 11 13 11 14 0 8 -11
-6 -12 1 -7 36 24 159 19 559 -10 743 -3 22 -8 54 -10 70 -2 17 -7 45 -11 64
-5 25 -4 32 4 27 8 -4 10 -2 6 7 -3 8 2 21 10 30 8 8 12 17 9 21 -3 3 2 8 11
12 9 3 14 10 11 14 -3 5 2 15 10 23 8 9 15 19 15 24 0 4 11 20 25 35 14 15 25
32 25 38 0 5 3 10 8 10 4 0 18 17 32 37 14 21 39 52 57 70 18 18 30 33 28 33
-5 0 29 41 63 76 12 13 22 26 22 29 0 3 16 21 35 40 19 19 32 35 30 35 -3 0
22 27 55 61 33 34 60 63 60 66 0 3 24 29 54 59 30 30 52 54 49 54 -2 0 3 7 11
16 9 8 21 12 27 8 8 -4 9 -3 5 4 -8 13 24 53 36 46 5 -3 7 -1 6 5 -2 5 27 39
64 74 36 36 64 67 61 70 -2 3 5 8 16 12 12 3 20 9 18 13 -2 4 7 17 20 29 13
12 23 21 23 19 0 -2 51 46 114 108 141 138 202 193 191 176 -5 -9 -4 -11 3 -6
7 4 12 14 12 23 0 13 2 14 17 2 13 -11 15 -11 9 -1 -9 15 19 52 39 52 7 0 15
7 19 15 3 8 13 15 22 15 10 0 14 3 11 7 -4 3 5 14 21 23 32 20 96 25 85 7 -4
-8 -1 -7 9 1 9 7 19 9 22 4 3 -4 25 -7 50 -6 26 1 46 -1 46 -4 0 -4 52 -7 116
-7 64 0 118 -3 121 -7 2 -5 10 -5 16 -1 7 4 41 8 77 9 62 2 139 8 241 18 44 5
63 8 115 20 12 2 39 7 60 11 45 8 69 13 69 15 0 1 8 3 18 6 9 2 25 6 35 8 9 3
18 5 20 6 1 2 5 3 10 5 4 1 15 5 24 9 9 4 23 8 31 10 18 2 198 94 226 115 l22
16 -25 30 c-13 17 -69 86 -125 155 -56 69 -107 132 -114 140 -86 106 -145 179
-159 195 -13 16 -61 75 -141 175 -84 104 -142 176 -147 180 -3 3 -61 75 -130
160 -68 85 -147 182 -175 216 -27 33 -63 78 -80 99 -16 21 -35 43 -40 49 -6 6
-26 31 -45 56 -19 25 -43 54 -54 65 -10 11 -30 36 -45 55 -14 19 -36 46 -48
60 -23 27 -109 133 -158 195 -16 21 -34 43 -40 49 -5 6 -37 45 -70 86 -33 41
-62 77 -65 80 -3 3 -41 50 -85 105 -44 55 -88 109 -98 120 -10 11 -37 45 -60
75 -23 30 -45 57 -48 60 -4 3 -57 68 -119 145 -61 77 -115 141 -118 142 -4 2
-12 -1 -18 -5z"/>
<path d="M7599 4553 c-13 -16 -12 -17 4 -4 9 7 17 15 17 17 0 8 -8 3 -21 -13z"/>
<path d="M7100 4526 c0 -2 8 -10 18 -17 15 -13 16 -12 3 4 -13 16 -21 21 -21
13z"/>
<path d="M1320 4480 c-9 -6 -10 -10 -3 -10 6 0 15 5 18 10 8 12 4 12 -15 0z"/>
<path d="M5466 3522 c-3 -5 1 -9 9 -9 8 0 12 4 9 9 -3 4 -7 8 -9 8 -2 0 -6 -4
-9 -8z"/>
<path d="M2487 1919 c7 -7 15 -10 18 -7 3 3 -2 9 -12 12 -14 6 -15 5 -6 -5z"/>
<path d="M946 1202 c-3 -5 1 -9 9 -9 8 0 12 4 9 9 -3 4 -7 8 -9 8 -2 0 -6 -4
-9 -8z"/>
<path d="M350 816 c0 -2 8 -10 18 -17 15 -13 16 -12 3 4 -13 16 -21 21 -21 13z"/>
<path d="M4380 726 c0 -2 8 -10 18 -17 15 -13 16 -12 3 4 -13 16 -21 21 -21
13z"/>
</g>
</svg>
